<?xml version="1.0" encoding="UTF-8" standalone="no" ?>
<!DOCTYPE svg PUBLIC "-//W3C//DTD SVG 1.1//EN" "http://www.w3.org/Graphics/SVG/1.1/DTD/svg11.dtd">
<svg xmlns="http://www.w3.org/2000/svg" xmlns:xlink="http://www.w3.org/1999/xlink" version="1.1" width="1054" height="501" viewBox="0 0 1054 501" xml:space="preserve">
<desc>Created with Fabric.js 3.6.3</desc>
<defs>
</defs>
<g transform="matrix(1 0 0 1.34 258.77 250.15)"  >
<path style="stroke: none; stroke-width: 1; stroke-dasharray: none; stroke-linecap: butt; stroke-dashoffset: 0; stroke-linejoin: miter; stroke-miterlimit: 4; fill: rgb(4,180,237); fill-rule: nonzero; opacity: 1;"  transform=" translate(-271.71, -186.33)" d="M 529.98 372.51 c -286.17 -1.9 -516.55 -84.55 -516.55 -186.18 C 13.43 84.65 243.81 2.04 529.98 0.15 c -209.91 2.55 -378.46 84.9 -378.46 186.18 C 151.52 287.56 320.07 369.97 529.98 372.51 z" stroke-linecap="round" />
</g>
<g transform="matrix(1 0 0 1.34 352.61 250.15)"  >
<path style="stroke: none; stroke-width: 1; stroke-dasharray: none; stroke-linecap: butt; stroke-dashoffset: 0; stroke-linejoin: miter; stroke-miterlimit: 4; fill: rgb(4,180,237); fill-rule: nonzero; opacity: 1;"  transform=" translate(-365.54, -186.33)" d="M 534.62 372.51 h -3.5 c -185.58 -2.55 -334.66 -84.95 -334.66 -186.18 c 0 -101.28 149.08 -183.64 334.66 -186.18 h 3.5 c -112.77 2.55 -203.31 84.9 -203.31 186.18 C 331.31 287.56 421.85 369.97 534.62 372.51 z" stroke-linecap="round" />
</g>
<g transform="matrix(1 0 0 1.34 795.37 250.15)"  >
<path style="stroke: none; stroke-width: 1; stroke-dasharray: none; stroke-linecap: butt; stroke-dashoffset: 0; stroke-linejoin: miter; stroke-miterlimit: 4; fill: rgb(4,180,237); fill-rule: nonzero; opacity: 1;"  transform=" translate(-808.3, -186.33)" d="M 1066.55 186.33 c 0 101.63 -230.33 184.29 -516.5 186.18 c 209.91 -2.55 378.46 -84.95 378.46 -186.18 c 0 -101.28 -168.55 -183.64 -378.46 -186.18 C 836.22 2.04 1066.55 84.65 1066.55 186.33 z" stroke-linecap="round" />
</g>
<g transform="matrix(1 0 0 1.34 701.55 250.15)"  >
<path style="stroke: none; stroke-width: 1; stroke-dasharray: none; stroke-linecap: butt; stroke-dashoffset: 0; stroke-linejoin: miter; stroke-miterlimit: 4; fill: rgb(4,180,237); fill-rule: nonzero; opacity: 1;"  transform=" translate(-714.48, -186.33)" d="M 883.56 186.33 c 0 101.23 -149.08 183.64 -334.66 186.18 h -3.5 c 112.77 -2.55 203.31 -84.95 203.31 -186.18 c 0 -101.28 -90.54 -183.64 -203.31 -186.18 h 3.5 C 734.49 2.69 883.56 85.05 883.56 186.33 z" stroke-linecap="round" />
</g>
<g transform="matrix(1 0 0 1.34 527.1 250.15)"  >
<polygon style="stroke: none; stroke-width: 1; stroke-dasharray: none; stroke-linecap: butt; stroke-dashoffset: 0; stroke-linejoin: miter; stroke-miterlimit: 4; fill: rgb(209,235,45); fill-rule: nonzero; opacity: 1;"  points="150.89,-97.92 -93.1,-97.92 -150.89,-56.18 -150.89,52.97 -89.89,97.92 86.69,97.92 150.89,52.97 150.89,-17.66 -35.31,-17.66 14.46,21.94 68.5,21.94 68.5,54.04 -74.9,54.04 -74.9,-57.25 96.33,-57.25 " />
</g>
</svg>